<?xml version="1.0" standalone="no"?>
<!DOCTYPE svg PUBLIC "-//W3C//DTD SVG 20010904//EN"
 "http://www.w3.org/TR/2001/REC-SVG-20010904/DTD/svg10.dtd">
<svg version="1.0" xmlns="http://www.w3.org/2000/svg"
 width="260.000000pt" height="260.000000pt" viewBox="0 0 260.000000 260.000000"
 preserveAspectRatio="xMidYMid meet">
<metadata>
Created by potrace 1.11, written by Peter Selinger 2001-2013
</metadata>
<g transform="translate(0.000000,260.000000) scale(0.100000,-0.100000)"
fill="#000000" stroke="none">
<path d="M0 1300 l0 -1300 1300 0 1300 0 0 1300 0 1300 -1300 0 -1300 0 0
-1300z m1572 850 c43 -12 91 -63 108 -116 17 -51 7 -142 -23 -208 -27 -59
-104 -143 -179 -193 -60 -41 -62 -65 -14 -185 54 -133 76 -229 76 -334 0 -321
-250 -563 -505 -489 -107 31 -169 87 -222 200 -26 55 -28 69 -28 180 1 139 19
201 85 284 120 152 355 130 415 -38 27 -78 14 -182 -25 -188 -32 -6 -44 14
-44 79 -1 72 -18 107 -69 139 -24 15 -44 19 -79 16 -72 -6 -120 -43 -160 -124
-31 -63 -33 -74 -33 -168 0 -92 2 -104 30 -155 60 -109 167 -156 285 -126 142
37 234 152 262 328 15 97 -4 204 -63 351 -55 139 -58 142 -172 143 -102 1
-170 23 -234 78 -70 59 -132 251 -98 302 30 47 59 26 70 -51 20 -143 122 -245
246 -245 141 0 337 117 389 232 38 83 20 173 -39 198 -63 26 -135 -9 -173 -83
-24 -48 -35 -154 -21 -207 12 -48 6 -69 -23 -76 -36 -9 -51 10 -63 81 -29 167
50 329 179 370 55 17 75 18 122 5z m339 -462 l-6 -42 -80 -16 -80 -16 -8 -88
c-4 -49 -6 -91 -3 -93 3 -3 35 0 71 7 36 7 68 10 71 7 3 -3 3 -23 -1 -45 l-6
-40 -72 -14 -72 -13 -8 -135 c-5 -74 -10 -136 -12 -138 -7 -7 -80 -21 -84 -16
-8 7 30 628 38 637 8 8 242 56 252 51 3 -2 3 -22 0 -46z m-1225 -128 c62 -85
113 -165 113 -176 1 -24 -23 -38 -44 -27 -7 5 -66 81 -130 171 -99 137 -115
165 -104 178 27 32 52 10 165 -146z m1694 145 c7 -8 10 -21 7 -29 -6 -16 -366
-206 -390 -206 -18 0 -33 38 -20 50 10 10 376 200 384 200 4 0 12 -7 19 -15z
m-165 -443 c191 -47 200 -50 200 -73 0 -17 -6 -25 -22 -27 -35 -5 -404 88
-410 104 -5 14 13 44 26 44 3 0 96 -22 206 -48z m-1730 -5 c168 -38 190 -45
193 -63 7 -46 -15 -47 -207 -4 -99 22 -189 40 -200 40 -26 0 -44 25 -36 50 9
28 30 26 250 -23z m1533 -312 c61 -90 112 -170 112 -178 0 -17 -24 -29 -44
-21 -22 8 -238 334 -232 349 3 8 16 15 28 15 18 0 46 -34 136 -165z m-1344 49
c9 -3 16 -16 16 -29 0 -20 -28 -38 -185 -124 -101 -56 -191 -101 -199 -101
-18 0 -39 26 -34 41 3 9 372 219 385 219 1 0 8 -3 17 -6z"/>
</g>
</svg>
