<svg width="452" height="89" viewBox="0 0 452 89" fill="none" xmlns="http://www.w3.org/2000/svg">
<path d="M449.455 0.232821C449.685 0.24486 449.914 0.256903 450.141 0.326109C451.35 0.676151 451.912 1.68008 451.484 2.51751C451.481 2.57468 450.632 4.1352 449.113 6.74978C448.609 7.5832 447.284 7.97231 446.077 7.56511C444.947 7.16191 444.386 6.15797 444.893 5.26739C446.406 2.76714 447.175 1.25977 447.175 1.25977C447.594 0.593836 448.537 0.184663 449.455 0.232821Z" fill="#144D73"/>
<path d="M441.834 12.387C442.14 12.403 442.52 12.4802 442.82 12.6106C443.947 13.071 444.352 14.1241 443.771 14.9535C441.867 17.6051 439.81 20.2488 437.682 22.7741C437.028 23.5423 435.635 23.7559 434.588 23.2424C433.54 22.7289 433.212 21.6798 433.866 20.9116C435.914 18.4395 437.889 15.9061 439.793 13.2544C440.132 12.6417 440.992 12.3428 441.834 12.387ZM429.147 27.4856C429.606 27.5097 429.983 27.6441 430.356 27.8357C431.401 28.4064 431.576 29.4474 430.846 30.2116C428.412 32.7209 425.834 35.0506 423.262 37.266C422.457 37.969 420.997 38.0071 420.032 37.3833C419.067 36.7594 418.971 35.6652 419.775 34.9622C422.265 32.8571 424.766 30.5234 427.118 28.1245C427.677 27.6952 428.381 27.4455 429.147 27.4856ZM294.707 32.99C295.166 33.0141 295.696 33.1565 296.066 33.4053C299.182 35.4603 302.304 37.401 305.355 39.2234C306.399 39.7941 306.572 40.8923 305.844 41.5993C305.116 42.3063 303.65 42.4588 302.682 41.8921C299.555 40.0657 296.359 38.0638 293.17 35.9476C292.205 35.3238 292.109 34.2296 292.914 33.5266C293.397 33.0933 294.018 32.9539 294.707 32.99ZM413.402 40.8763C413.938 40.9044 414.541 41.108 414.986 41.4179C415.871 42.0949 415.814 43.181 414.936 43.8229C411.908 45.957 408.736 47.9117 405.575 49.6376C404.55 50.1571 403.179 49.9705 402.373 49.2404C401.647 48.4571 401.777 47.4321 402.805 46.8555C405.806 45.2358 408.899 43.3344 411.768 41.3065C412.169 40.9836 412.79 40.8442 413.402 40.8763ZM314.072 44.2091C314.455 44.2291 314.835 44.3064 315.208 44.4979C318.648 46.226 322.097 47.7826 325.557 49.1105C326.684 49.5709 327.169 50.5708 326.589 51.4002C326.008 52.2296 324.686 52.5616 323.559 52.1012C320.025 50.7121 316.426 49.0903 312.836 47.297C311.789 46.7835 311.46 45.7344 312.117 44.9091C312.524 44.4718 313.307 44.1689 314.072 44.2091ZM394.058 51.212C394.823 51.2521 395.573 51.5781 395.929 52.1126C396.499 52.9451 396.139 53.958 395.041 54.4163C391.357 55.8855 387.535 57.0609 383.651 57.9464C382.485 58.2292 381.128 57.7568 380.717 56.818C380.303 55.9365 380.893 54.9356 382.135 54.6568C385.71 53.8124 389.299 52.6822 392.824 51.3193C393.289 51.229 393.675 51.1919 394.058 51.212ZM335.648 52.7924C335.878 52.8045 336.108 52.8165 336.334 52.8857C340.113 54.001 343.904 54.8877 347.63 55.5417C348.845 55.7774 349.642 56.679 349.441 57.5857C349.24 58.4923 347.983 59.0569 346.764 58.8784C342.808 58.2123 338.791 57.2565 334.786 56.072C333.576 55.7219 333.015 54.718 333.442 53.8806C333.787 53.1535 334.73 52.7443 335.648 52.7924ZM371.365 56.6143C372.436 56.6704 373.325 57.2903 373.512 58.1026C373.694 59.0293 372.881 59.9039 371.647 60.0111C367.561 60.3701 363.333 60.4924 359.201 60.2757C357.976 60.2115 356.943 59.4121 356.991 58.4975C357.039 57.5828 358.076 56.8346 359.301 56.8988C363.204 57.1035 367.125 56.9652 370.903 56.6473C371.059 56.5982 371.212 56.6062 371.365 56.6143Z" fill="#144D73"/>
<path d="M282.281 29.9311C282.003 30.8337 280.746 31.3983 279.533 31.1054C278.318 30.8697 277.524 29.9109 277.878 29.0123C278.708 26.3616 279.101 24.7199 279.101 24.7199C279.287 24.0991 279.85 23.6127 280.627 23.4241C280.859 23.379 281.169 23.3379 281.398 23.3499" fill="#144D73"/>
<path d="M281.398 23.3499C281.934 23.378 282.537 23.5816 282.905 23.8875Z" fill="#144D73"/>
<path d="M277.218 35.7418C277.448 35.7539 277.601 35.7619 277.827 35.8311C279.04 36.124 279.681 37.0747 279.327 37.9734C278.185 40.7223 276.97 43.4101 275.687 45.9224C275.256 46.817 273.931 47.2061 272.721 46.8561C271.512 46.506 270.95 45.5021 271.381 44.6075C272.661 42.1524 273.87 39.5789 274.933 36.8831C275.201 36.152 276.147 35.6856 277.218 35.7418ZM269.12 51.1385C269.426 51.1545 269.729 51.2277 270.029 51.3581C271.156 51.8185 271.641 52.8184 271.061 53.6478C269.309 56.3075 267.414 58.7877 265.458 60.978C264.803 61.7462 263.334 61.9558 262.29 61.3851C261.242 60.8716 260.916 59.7654 261.647 59.0012C263.521 56.9212 265.255 54.6045 267 52.0591C267.418 51.3932 268.278 51.0943 269.12 51.1385ZM207.698 60.4142C208.233 60.4423 208.687 60.5807 209.131 60.8907C212.02 62.8765 214.844 64.6296 217.607 66.0929C218.652 66.6636 218.904 67.7087 218.25 68.4769C217.519 69.2411 216.129 69.3975 215.082 68.884C212.169 67.3555 209.121 65.476 206.085 63.3678C205.123 62.6868 205.1 61.6538 205.904 60.9508C206.385 60.5747 207.085 60.3821 207.698 60.4142ZM256.746 64.6485C257.282 64.6766 257.809 64.8762 258.253 65.1861C259.138 65.8631 259.158 66.9533 258.28 67.5951C255.326 69.7904 252.165 71.5164 248.879 72.7198C247.783 73.121 246.421 72.7629 245.774 71.9265C245.203 71.094 245.64 70.0851 246.739 69.6268C249.557 68.5708 252.322 67.0534 254.959 65.0707C255.513 64.7558 256.134 64.6164 256.746 64.6485ZM226.391 69.821C226.62 69.833 226.85 69.845 227.077 69.9142C230.555 70.8992 233.905 71.4188 237.131 71.3586C238.359 71.3657 239.471 72.1119 239.5 73.0306C239.528 73.9492 238.565 74.7586 237.337 74.7515C233.498 74.7795 229.537 74.2278 225.531 73.0433C224.322 72.6933 223.76 71.6893 224.188 70.8519C224.453 70.178 225.396 69.7688 226.391 69.821Z" fill="#144D73"/>
<path d="M195.846 50.793C196.458 50.8251 197.062 51.0287 197.5 51.4529C198.818 52.6685 200.138 53.8269 201.462 54.9281C202.344 55.6623 202.211 56.7444 201.336 57.3291C200.385 57.9098 198.931 57.8335 198.122 57.1606C197.533 56.6711 197.022 56.1857 196.433 55.6963C196.1 56.1947 195.764 56.7503 195.348 57.3591C194.844 58.1925 193.446 58.5204 192.316 58.1172C191.186 57.714 190.704 56.6569 191.208 55.8235C192.791 53.4416 193.643 51.824 193.643 51.824C193.979 51.2683 194.613 50.9003 195.384 50.8261C195.537 50.8341 195.693 50.785 195.846 50.793Z" fill="#144D73"/>
<path d="M118.124 19.6609C119.195 19.717 120.084 20.3369 120.271 21.1492C120.942 24.4518 121.616 27.6973 122.379 30.7181C122.637 31.6488 121.747 32.5193 120.514 32.6266C119.28 32.7339 118.086 32.098 117.904 31.1713C117.144 28.0934 116.47 24.8479 115.802 21.4881C115.621 20.5614 116.434 19.6869 117.744 19.5836C117.818 19.6448 117.971 19.6528 118.124 19.6609ZM122.719 38.8758C123.714 38.928 124.605 39.4907 124.872 40.2499C125.773 43.5645 126.756 46.7689 127.754 49.6874C128.089 50.6221 127.352 51.5007 126.112 51.7223C124.873 51.9439 123.675 51.3652 123.341 50.4305C122.345 47.4548 121.365 44.1933 120.391 40.8174C120.133 39.8867 120.946 39.0122 122.183 38.8478C122.336 38.8558 122.489 38.8638 122.719 38.8758ZM129.171 57.787C130.09 57.8351 130.987 58.2835 131.254 59.0427C132.691 62.3854 134.145 65.3852 135.691 68.1031C136.182 68.9887 135.669 69.9936 134.5 70.3336C133.331 70.6736 131.971 70.2583 131.48 69.3727C129.861 66.5936 128.339 63.4183 126.905 60.0184C126.491 59.1369 127.154 58.1971 128.397 57.9184C128.633 57.8161 128.942 57.7749 129.171 57.787ZM187.359 63.3603C187.742 63.3804 188.045 63.4536 188.422 63.588C189.546 64.1055 189.874 65.1546 189.297 65.9268C186.992 68.9014 184.543 71.6965 182.191 74.0955C181.461 74.8597 180.071 75.0161 179.03 74.3882C177.985 73.8176 177.733 72.7725 178.54 72.0123C180.812 69.6665 183.099 67.0349 185.401 64.1175C185.734 63.619 186.517 63.3162 187.359 63.3603ZM139.743 75.7103C140.432 75.7464 141.109 76.0112 141.544 76.4926C144.226 79.4994 146.95 81.7059 149.878 82.9486C151.002 83.4661 151.334 84.458 150.753 85.2874C150.096 86.1128 148.78 86.3304 147.653 85.87C144.204 84.3134 140.883 81.789 137.842 78.3048C137.116 77.5215 137.402 76.4474 138.427 75.9279C138.819 75.7765 139.284 75.6863 139.743 75.7103ZM171.978 78.6044C172.514 78.6325 173.117 78.8361 173.485 79.142C174.37 79.819 174.313 80.9051 173.435 81.547C169.532 84.2658 165.674 86.1271 161.941 87.0778C160.775 87.3606 159.418 86.8882 159.004 86.0067C158.589 85.1251 159.179 84.1242 160.345 83.8414C163.455 83.0873 166.762 81.4836 170.188 79.0837C170.821 78.7157 171.366 78.5723 171.978 78.6044Z" fill="#144D73"/>
<path d="M115.494 5.4215C115.57 5.42551 115.723 5.43354 115.8 5.43755C116.789 5.60405 117.524 6.21585 117.638 6.96704C117.866 8.46941 118.171 9.9758 118.399 11.4782C118.581 12.4049 117.691 13.2754 116.461 13.3255C115.383 13.3837 114.409 12.9313 113.989 12.1641C113.27 12.6996 112.11 12.8681 111.136 12.4158C110.089 11.9022 109.683 10.8492 110.338 10.081C112.224 7.77227 113.297 6.33812 113.3 6.28095C113.792 5.6762 114.652 5.37735 115.494 5.4215Z" fill="#144D73"/>
<path d="M96.9329 24.2248C99.3488 22.0586 101.697 19.7168 103.972 17.3139C104.458 16.8235 105.162 16.5738 105.927 16.6139" fill="#144D73"/>
<path d="M105.927 16.6138C106.31 16.6339 106.763 16.7723 107.137 16.9639C108.182 17.5346 108.434 18.5796 107.703 19.3438C105.346 21.8571 102.918 24.252 100.422 26.4714C99.6178 27.1744 98.2312 27.2737 97.1897 26.6459" fill="#144D73"/>
<path d="M9.40636 13.2152C10.2482 13.2593 10.9956 13.6425 11.4248 14.2382C13.1178 17.0785 14.8962 19.7513 16.6837 22.2526C17.3306 23.0891 16.8939 24.098 15.7955 24.5563C14.697 25.0146 13.3344 24.6565 12.6875 23.8201C10.8265 21.2576 8.97451 18.5236 7.21102 15.565C6.72024 14.6794 7.2334 13.6745 8.32586 13.3305C8.71453 13.2362 9.10022 13.1991 9.40636 13.2152Z" fill="#144D73"/>
<path d="M92.4765 33.1055C89.5188 35.358 86.4936 37.435 83.5629 39.173C82.6115 39.7536 81.1603 39.6202 80.3544 38.8901C79.5485 38.1599 79.682 37.0778 80.6333 36.4971C83.408 34.8083 86.2742 32.8376 89.1493 30.6954" fill="#144D73"/>
<path d="M21.1608 29.0794C21.8496 29.1155 22.5264 29.3803 22.8851 29.8577C25.2819 32.4483 27.7732 34.6999 30.356 36.6697C31.2414 37.3467 31.261 38.4368 30.3831 39.0787C29.5053 39.7205 28.0481 39.7014 27.1627 39.0245C24.4328 36.9323 21.7974 34.5012 19.177 31.7842C18.4507 31.001 18.6607 29.9228 19.6856 29.4033C20.1598 29.1416 20.625 29.0513 21.1608 29.0794Z" fill="#144D73"/>
<path d="M72.4865 41.1145C73.2518 41.1546 74.0022 41.4806 74.3579 42.0151C75.0047 42.8516 74.6446 43.8645 73.5462 44.3228C69.6265 45.8943 65.8043 47.0697 62.0092 47.7305C60.7696 47.9521 59.5721 47.3734 59.2373 46.4387C58.9026 45.504 59.6394 44.6254 60.8789 44.4038C64.2854 43.8372 67.7955 42.7602 71.3235 41.3401C71.6386 41.1847 72.0273 41.0904 72.4865 41.1145Z" fill="#144D73"/>
<path d="M38.3024 41.7296C38.6085 41.7456 38.9882 41.8229 39.2884 41.9533C42.6635 43.4487 46.2217 44.3805 49.7303 44.7937C50.9519 44.9151 51.9019 45.8248 51.7008 46.7314C51.5763 47.642 50.3893 48.325 49.1708 48.1465C45.0499 47.7011 40.9649 46.5697 37.0631 44.8747C35.936 44.4144 35.5308 43.3613 36.188 42.5359C36.6772 41.9883 37.4605 41.6854 38.3024 41.7296Z" fill="#144D73"/>
<path d="M2.70349 0.539044C3.62191 0.587202 4.4428 1.03151 4.78951 1.73757C5.47992 3.20685 6.17332 4.61897 6.86973 5.97392C7.28398 6.85548 6.77078 7.86039 5.52824 8.13918C4.36223 8.42198 3.00262 8.00675 2.59137 7.06801C1.89796 5.6559 1.13099 4.1826 0.440575 2.71331C0.0263284 1.83175 0.616056 0.830854 1.78206 0.548056C2.0912 0.506942 2.39735 0.522992 2.70349 0.539044Z" fill="#144D73"/>
</svg>
