<svg width="187" height="224" viewBox="0 0 187 224" fill="none" xmlns="http://www.w3.org/2000/svg">
<g clip-path="url(#clip0)">
<path d="M5.64265 86.1195C23.2855 25.9853 76.8569 -11.2407 125.428 3.0054C173.928 17.2515 199 77.6005 181.428 137.806C163.786 197.941 110.214 235.166 61.6427 220.92C13.0712 206.674 -12.0002 146.325 5.64265 86.1195Z" fill="#144D73"/>
<path d="M121.357 43.8123C122.143 33.9331 123 23.9823 123.857 14.1031C124.071 11.0964 119.429 10.8816 119.214 13.8883C118.429 23.7675 117.571 33.7183 116.714 43.5975C116.429 46.6042 121.071 46.819 121.357 43.8123Z" fill="#69BDA0"/>
<path d="M134.786 53.6196C138.5 49.8254 142.429 46.1744 146.214 42.4518C148.357 40.3042 150.571 38.2281 152.714 36.0804C153.643 35.1498 155.643 33.718 156 32.2863C156.714 29.4227 152.357 27.9194 151.571 30.7829C151.643 30.4965 152.071 30.067 151.857 30.2102C151.643 30.425 151.429 30.6397 151.214 30.8545C150.5 31.5704 149.786 32.2863 149.071 33.0021C146.929 35.1498 144.714 37.2974 142.5 39.4451C138.857 42.9529 135.143 46.4608 131.571 50.1118C129.571 52.331 132.714 55.7672 134.786 53.6196Z" fill="#69BDA0"/>
<path d="M140.357 69.7987C149.571 69.4407 158.857 69.0828 168.071 68.7248C171.071 68.5817 171.286 63.9284 168.286 64.0716C159.071 64.4295 149.786 64.7875 140.571 65.1454C137.571 65.2886 137.357 69.9418 140.357 69.7987Z" fill="#69BDA0"/>
<path d="M65.6429 180.188C64.8572 190.067 64 200.018 63.1429 209.897C62.9286 212.904 67.5714 213.119 67.7857 210.112C68.5714 200.233 69.4286 190.282 70.2857 180.403C70.5714 177.396 65.9286 177.181 65.6429 180.188Z" fill="white"/>
<path d="M52.2143 170.38C48.5 174.174 44.5714 177.825 40.7857 181.548C38.6428 183.696 36.4286 185.772 34.2857 187.919C33.3571 188.85 31.3571 190.282 31 191.713C30.2857 194.505 34.2857 195.937 35.2857 193.575C35.4286 193.432 35.5714 193.288 35.7143 193.074C36.4286 192.358 37.1428 191.642 37.8571 190.926C40 188.778 42.2143 186.631 44.4286 184.483C48.0714 180.975 51.7857 177.467 55.3571 173.816C57.4286 171.669 54.3571 168.232 52.2143 170.38Z" fill="white"/>
<path d="M46.6428 154.201C37.4286 154.559 28.1428 154.917 18.9286 155.275C15.9286 155.418 15.7143 160.072 18.7143 159.929C27.9286 159.571 37.2143 159.213 46.4285 158.855C49.4285 158.712 49.6428 154.058 46.6428 154.201Z" fill="white"/>
<path d="M105.143 95.2842C106.929 94.1388 108.857 92.9218 110.714 91.49C116.429 86.9084 121.357 80.7518 122.286 72.5191C123.571 59.9911 115.643 54.622 107.571 56.0538C96.3572 58.0583 91.4286 68.4386 91.4286 79.7495C91.5714 83.0426 92.0714 84.9039 92.8572 88.197C93.2143 90.273 95.2857 90.7026 96.7857 89.8435C98 89.2708 98.8572 87.9106 98.4286 86.2641C97.7857 83.4721 97.2857 81.8256 97.2857 78.8189C97.4286 70.801 100.429 63.2126 108.286 62.0672C113.143 61.4945 117.571 64.8591 116.929 72.3043C116.357 78.0314 112.5 82.8278 107.929 86.5504C101.857 91.2037 93.6429 94.9263 86.2143 94.7831C76.3572 94.5683 68.2857 86.1209 68.2143 74.0225C68.2857 70.2283 62.4286 70.2283 62.7143 75.1679C63.4286 90.9889 72.5714 100.439 86.0714 100.797C87.7857 100.725 89.5 100.725 91.2143 100.367C93.5714 100.081 96.5 101.298 97.5714 103.875C101.214 112.537 105.5 121.987 105.643 131.58C105.786 138.094 104.143 144.322 101.286 149.62C90.6429 168.877 63.1429 166.443 61.9286 141.817C61.4286 130.291 67.7857 118.264 78.5714 118.908C84.7143 119.123 89.5 125.638 87.7857 133.011C87.0714 136.233 92.1429 138.309 93.1429 134.085C95.7143 121.629 89 112.752 78.2857 112.394C63.4286 111.893 55.1429 127.141 55.7143 142.031C56.7857 172.886 90.6429 178.828 105.286 155.204C109.786 147.973 112.214 138.81 111.714 129.933C111.214 121.271 107.286 110.962 103.643 102.515C103.5 102.3 103.357 102.157 103.357 101.799C102.571 99.4363 103 96.4296 105.143 95.2842Z" fill="white"/>
</g>
<defs>
<clipPath id="clip0">
<rect width="187" height="224" fill="white"/>
</clipPath>
</defs>
</svg>
