<?xml version="1.0" encoding="utf-8"?>
<!-- Generator: Adobe Illustrator 19.0.0, SVG Export Plug-In . SVG Version: 6.00 Build 0)  -->
<svg version="1.1" id="Layer_1" xmlns="http://www.w3.org/2000/svg" xmlns:xlink="http://www.w3.org/1999/xlink" x="0px" y="0px"
	 viewBox="0 0 640 387.5" style="enable-background:new 0 0 640 387.5;" xml:space="preserve">
<style type="text/css">
	.st0{fill:#79C6AF;}
	.st1{fill:#FFFFFF;}
</style>
<g id="XMLID_52_">
	<g id="XMLID_66_">
		<path id="XMLID_89_" class="st0" d="M154.7,315c0-0.5,0.3-0.8,0.8-0.9l19.6-3.6c0.4-0.1,0.7,0.2,0.7,0.6l-0.4,5.9
			c0,0.5-0.3,0.8-0.8,0.9l-12.4,2.3c-0.3,0.1-0.4,0.2-0.5,0.5l-0.9,14.1c0,0.3,0.1,0.4,0.4,0.4l10.7-2c0.4-0.1,0.7,0.2,0.7,0.6
			l-0.4,5.9c0,0.5-0.3,0.8-0.8,0.9l-10.7,2c-0.3,0.1-0.4,0.2-0.5,0.5l-1.3,21c0,0.5-0.3,0.8-0.8,0.9l-6.1,1.1
			c-0.4,0.1-0.7-0.2-0.7-0.6L154.7,315z"/>
		<path id="XMLID_86_" class="st0" d="M180,353.7c-0.6-2.2-0.7-4,0.2-18.4c0.9-14.5,1.2-16.3,2-18.8c1.9-5.4,5.9-9.1,11.8-10.2
			c5.8-1.1,9.5,1.2,10.8,6c0.6,2.2,0.7,4-0.2,18.4c-0.9,14.5-1.2,16.3-2,18.8c-1.9,5.4-5.9,9.1-11.8,10.2
			C184.9,360.8,181.2,358.5,180,353.7z M195.4,348.6c0.5-1.5,0.6-2.2,1.5-16.5c0.9-14.3,0.8-14.9,0.5-16.3c-0.4-1.7-1.9-2.5-3.8-2.2
			c-2,0.4-3.7,1.8-4.3,3.7c-0.5,1.5-0.6,2.2-1.5,16.5c-0.9,14.3-0.8,14.9-0.5,16.3c0.4,1.7,1.9,2.5,3.9,2.2
			C193.2,351.9,194.8,350.5,195.4,348.6z"/>
		<path id="XMLID_84_" class="st0" d="M211.8,342l2.3-38c0-0.5,0.3-0.8,0.8-0.9l6.1-1.1c0.4-0.1,0.7,0.2,0.7,0.6l-2.4,39.1
			c-0.2,3.3,1.3,5.1,4.1,4.6c2.8-0.5,4.5-2.9,4.7-6.2l2.4-39.1c0-0.5,0.3-0.8,0.8-0.9l6.1-1.1c0.4-0.1,0.7,0.2,0.7,0.6l-2.3,38
			c-0.6,9.3-5.4,14.8-12.7,16.1C215.5,355.1,211.2,351.3,211.8,342z"/>
		<path id="XMLID_82_" class="st0" d="M246.8,298c0-0.5,0.3-0.8,0.8-0.9l7.5-1.4c0.6-0.1,0.8,0.1,0.9,0.6l6.7,34.3l0.4-0.1l2.2-35.9
			c0-0.5,0.3-0.8,0.8-0.9l5.2-1c0.4-0.1,0.7,0.2,0.7,0.6l-3.1,50.5c0,0.5-0.3,0.8-0.8,0.9l-7,1.3c-0.6,0.1-0.8-0.1-0.9-0.6
			l-7.1-34.2l-0.4,0.1l-2.2,35.9c0,0.5-0.3,0.8-0.8,0.9l-5.2,1c-0.4,0.1-0.7-0.2-0.7-0.6L246.8,298z"/>
		<path id="XMLID_79_" class="st0" d="M280.6,291.7c0-0.5,0.3-0.8,0.8-0.9l11.1-2c6.3-1.2,9.8,0.9,11.1,6.2
			c0.7,2.7,0.8,6.1,0.1,17.4c-0.7,11.3-1.3,14.9-2.3,17.9c-2,5.9-5.9,9.3-12.1,10.5l-11.1,2c-0.4,0.1-0.7-0.2-0.7-0.6L280.6,291.7z
			 M285.9,334.1l3-0.6c2.7-0.5,4.3-1.9,5.3-4.7c0.7-2,1.1-4.6,1.7-15c0.6-10.4,0.5-12.9,0.1-14.7c-0.7-2.4-2.2-3.3-4.8-2.8l-3,0.6
			c-0.3,0.1-0.4,0.2-0.5,0.5l-2.2,36.3C285.5,334,285.7,334.1,285.9,334.1z"/>
		<path id="XMLID_76_" class="st0" d="M319.7,284.5c0.2-0.5,0.4-0.8,0.8-0.9l5.9-1.1c0.4-0.1,0.7,0.2,0.7,0.6l7.1,48.6
			c0,0.4-0.2,0.8-0.6,0.9l-6,1.1c-0.5,0.1-0.7-0.2-0.7-0.6l-1.3-10.1l-9.5,1.8l-2.5,10.8c-0.1,0.5-0.3,0.8-0.8,0.9l-6,1.1
			c-0.4,0.1-0.6-0.2-0.5-0.7L319.7,284.5z M324.8,316.3l-2.2-18.7l-0.2,0l-4.7,20L324.8,316.3z"/>
		<path id="XMLID_74_" class="st0" d="M343.5,330.7c-0.4,0.1-0.7-0.2-0.7-0.6l2.6-43.4c0-0.3-0.1-0.4-0.4-0.4l-7.3,1.4
			c-0.4,0.1-0.7-0.2-0.7-0.6l0.4-5.9c0-0.5,0.3-0.8,0.8-0.9l23-4.3c0.4-0.1,0.7,0.2,0.7,0.6l-0.4,5.9c0,0.5-0.3,0.8-0.8,0.9
			l-7.3,1.4c-0.3,0.1-0.4,0.2-0.5,0.5l-2.6,43.4c0,0.5-0.3,0.8-0.8,0.9L343.5,330.7z"/>
		<path id="XMLID_72_" class="st0" d="M368,275.5c0-0.5,0.3-0.8,0.8-0.9l6.1-1.1c0.4-0.1,0.7,0.2,0.7,0.6l-3.1,50.5
			c0,0.5-0.3,0.8-0.8,0.9l-6.1,1.1c-0.4,0.1-0.7-0.2-0.7-0.6L368,275.5z"/>
		<path id="XMLID_69_" class="st0" d="M381.8,316.3c-0.6-2.2-0.7-4,0.2-18.4c0.9-14.5,1.2-16.3,2-18.8c1.9-5.4,5.9-9.1,11.8-10.2
			c5.8-1.1,9.5,1.2,10.8,6c0.6,2.2,0.7,4-0.2,18.4c-0.9,14.5-1.2,16.3-2,18.8c-1.9,5.4-5.9,9.1-11.8,10.2
			C386.7,323.4,383,321.2,381.8,316.3z M397.3,311.3c0.5-1.5,0.6-2.2,1.5-16.5c0.9-14.3,0.8-14.9,0.5-16.3c-0.4-1.7-1.9-2.5-3.8-2.2
			c-2,0.4-3.7,1.8-4.3,3.7c-0.5,1.5-0.6,2.2-1.5,16.5c-0.9,14.3-0.8,14.9-0.5,16.3c0.4,1.7,1.9,2.5,3.9,2.2
			C395.1,314.5,396.7,313.1,397.3,311.3z"/>
		<path id="XMLID_67_" class="st0" d="M416,266.7c0-0.5,0.3-0.8,0.8-0.9l7.5-1.4c0.6-0.1,0.8,0.1,0.9,0.6l6.7,34.3l0.4-0.1l2.2-35.9
			c0-0.5,0.3-0.8,0.8-0.9l5.2-1c0.4-0.1,0.7,0.2,0.7,0.6l-3.1,50.5c0,0.5-0.3,0.8-0.8,0.9l-7,1.3c-0.6,0.1-0.8-0.1-0.9-0.6
			l-7.1-34.2l-0.4,0.1l-2.2,35.9c0,0.5-0.3,0.8-0.8,0.9l-5.2,1c-0.4,0.1-0.7-0.2-0.7-0.6L416,266.7z"/>
	</g>
	<g id="XMLID_62_">
		<path id="XMLID_36_" class="st0" d="M531,71.1c1.8-22,3.7-43.9,5.5-65.8c0.5-6.6-9.8-7.2-10.3-0.5c-1.8,22-3.7,43.9-5.5,65.8
			C520.1,77.2,530.4,77.7,531,71.1L531,71.1z"/>
		<path id="XMLID_35_" class="st0" d="M560.9,92.8c8.3-8.4,16.9-16.5,25.4-24.8c4.8-4.7,9.6-9.4,14.4-14.1c2.1-2.1,6.5-5.3,7.3-8.4
			c1.7-6.4-8.2-9.7-9.8-3.3c0.2-0.7,1.1-1.6,0.6-1.2c-0.5,0.5-0.9,1-1.4,1.4c-1.6,1.6-3.2,3.2-4.8,4.8c-4.8,4.8-9.7,9.5-14.5,14.2
			c-8.1,7.9-16.3,15.6-24.2,23.6C549.3,89.9,556.2,97.6,560.9,92.8L560.9,92.8z"/>
		<path id="XMLID_34_" class="st0" d="M573.2,128.7c20.5-0.8,41-1.6,61.6-2.4c6.6-0.3,7.2-10.6,0.5-10.3c-20.5,0.8-41,1.6-61.6,2.4
			C567.1,118.6,566.5,129,573.2,128.7L573.2,128.7z"/>
	</g>
	<g id="XMLID_58_">
		<path id="XMLID_33_" class="st1" d="M109,316.4c-1.8,22-3.7,43.9-5.5,65.8c-0.5,6.6,9.8,7.2,10.3,0.5c1.8-22,3.7-43.9,5.5-65.8
			C119.9,310.3,109.6,309.8,109,316.4z"/>
		<path id="XMLID_32_" class="st1" d="M79.1,294.7c-8.3,8.4-16.9,16.5-25.4,24.8c-4.8,4.7-9.6,9.4-14.4,14.1
			c-2.1,2.1-6.5,5.3-7.3,8.4c-1.6,6.1,7.3,9.4,9.5,4.1c0.3-0.4,0.7-0.7,1-1.1c1.6-1.6,3.2-3.2,4.8-4.8c4.8-4.8,9.7-9.5,14.5-14.2
			c8.1-7.9,16.3-15.6,24.2-23.6C90.7,297.6,83.8,289.9,79.1,294.7z"/>
		<path id="XMLID_31_" class="st1" d="M66.8,258.8c-20.5,0.8-41,1.6-61.6,2.4c-6.6,0.3-7.2,10.6-0.5,10.3c20.5-0.8,41-1.6,61.6-2.4
			C72.9,268.9,73.5,258.6,66.8,258.8z"/>
	</g>
	<path id="XMLID_30_" class="st1" d="M196.8,128.2c4-2.5,8.2-5.3,12.4-8.4c12.7-10.2,23.7-23.9,25.6-42
		c2.8-27.8-14.7-39.7-32.8-36.4c-24.9,4.4-35.9,27.5-35.8,52.5c0.3,7.3,1.5,11.4,3.2,18.7c0.7,4.6,5.4,5.5,8.7,3.7
		c2.6-1.3,4.6-4.3,3.7-8c-1.4-6.2-2.5-9.8-2.5-16.5c0.3-17.8,7-34.6,24.5-37.2c10.8-1.3,20.6,6.2,19.2,22.7
		c-1.3,12.8-9.9,23.3-20,31.6c-13.4,10.3-31.7,18.6-48.3,18.3c-21.9-0.5-39.9-19.2-40-46c0.2-8.4-12.8-8.5-12.3,2.5
		c1.7,35,21.9,56.1,51.9,56.9c3.8-0.1,7.5-0.2,11.5-0.9c5.2-0.6,11.8,2,14.2,7.8c8.1,19.3,17.7,40.2,17.9,61.4
		c0.3,14.4-3.3,28.3-9.7,40c-23.7,42.6-84.7,37.3-87.4-17.3c-1.2-25.6,13-52.3,36.9-50.9c13.7,0.5,24.3,15,20.4,31.3
		c-1.6,7.2,9.6,11.8,11.9,2.3c5.7-27.7-9.2-47.3-33-48c-33-1.2-51.5,32.8-50.2,65.8c2.3,68.4,77.6,81.6,110.1,29.3
		c10-16.1,15.5-36.4,14.3-56c-1.1-19.2-9.9-42-18-60.7c-0.3-0.5-0.6-0.8-0.7-1.6C191,137.5,192,130.9,196.8,128.2z"/>
	<path id="XMLID_29_" class="st1" d="M357.6,116.5c4.4-0.8,7.6-5.7,6.9-10.9c-0.7-5.2-4.9-8.8-9.3-8c-4.4,0.8-7.3,5.7-6.6,10.9
		C349.2,113.6,353.1,117.3,357.6,116.5z"/>
	<path id="XMLID_53_" class="st1" d="M587.7,177c-0.3-2.2-1.4-4.2-3.2-5.1c-1.5-1-3.1-1-4.6-0.4c-2,1-3.3,2.8-3.5,5.1
		c-1.2,7.9-3.6,15.6-7.8,21.5c-8.6,12.8-22.4,16.6-35.5,19.3c-3.1,1.2-4.8-1.7-4.6-5.6l1.9-18.9c2.4-25.9,4.2-50.6,8-77.7
		c1.9-10.4-6.8-13.8-11.4-8.3c-2.1,2.3-3.7,3.8-8.5,1.8c-4.3-2-9.2-2.4-13.8-1.6c-7.8,1.4-12.7,4.5-17.6,11.6
		c-6.3,8.5-10.4,20.9-12.7,32c0,0,0,0,0,0c-2.4,12.2-7.4,25.8-10.9,35.6c-4.6,12-9.6,22.8-14.8,26.3c-4.9,3.5-8.7,1.6-8.6-9.6
		c0-22,4.8-38.1,6.2-57.6c1.7-20.8-10.5-25.8-18.6-24.9c-7.1,1-13.6,4.6-18.4,10.2c-2.9,2.7-4.8,0.2-5.1-0.3
		c-2.5-4.9-11.1-4.9-12.9,3.9l-4,35.8v0c-1.8,11.3-6.5,24.2-10.1,33.8c-3,7.9-6.7,15.6-10.6,20.8c-4.6,6.3-10.5,9.3-13.8,2.2
		c-4.1-8.9-2-29.3-0.9-40c1.9-15.2,4.8-30.6,7-42.7c0.6-5.8-2.4-8.7-5.4-9.1c-3.9-0.9-6.6,2.8-7.4,7c-1.6,8.1-3.5,19.6-5.2,32.2
		c-2.7,14.8-7.1,24-11.3,29.7c-2.3,3-4.8,5-8.2,5.6c-5.2,1.3-4.5-5.9-3.7-7.9c2.7-8.5,4.9-17.7,5.7-28.3c0.6-6.4,0.4-12.4-1.1-17.8
		c-2.7-9-8.6-13.6-15-13.3c-22.7,0.3-22.2,43.5-10.3,59.7c5,5.8,10.8-4.2,6.9-9.8c-6.6-9.9-7.2-40.1,3.5-38.3
		c2.4,0.2,4.9,2.9,5.5,8.1c0.8,4,0.7,8.4,0.4,12.6c-1.2,14.8-18.2,71.2-33,69.8c-8.2-0.8-7.4-19.8-7.2-26.6c0.7-21.8,5-51.4,7-61.9
		c1-7.7-9.7-11.5-12.1-0.3c-1.9,13.3-6.8,40.8-7.7,63.6c-0.2,10.3-8.1,30.6-17.3,33.3c-4.5,1.1-7-2.3-7.5-11.5
		c-1.4-22.5,4.4-52.5,8.1-74.6c3-13.8-11.5-14-12.5-4c-3,21.7-14.3,72.5-5,93.2c3.7,9,10.9,12.2,19.2,9.1
		c14.3-5.2,13.4-18.2,25.4-8.2c3,2.4,5.1,2.3,8.9,2.2c14-0.9,22-15.9,29.2-30.4c1.5-3.5,2.8-6.3,8.4-6.6c7.3,0.3,12.1-2.5,16.7-6.9
		c1.6-1.6,3.1-3.5,4.4-5.6c0,9.9,1,19.7,4.3,26.4c6.9,14.2,20.8,10.7,30.6-2c3.4-4.5,6.4-10,8.9-15.9l-1.5,13.2
		c-0.2,9,12.4,10.3,13.3,0.2l4.3-40.1c1.7-16.2,11.5-54,28.9-53.6c3.5,0.3,7.3,2.8,6.9,9.2c-2.1,20.6-6.5,35.7-6.3,59.5
		c0.5,22.3,13.7,25.7,24.2,19c7.7-5.2,13.2-16.5,18-28.5c1.1-2.6,2.1-5.3,3.1-8c1.2,8.8,3.6,16.6,7.8,22.2c5.9,7.6,14,11.2,22.6,7.1
		c2.8-1.5,5.7-3.6,8.1-6c2.5-3,4.8-2.8,4.4,0.5c0,0.3-0.2,2.3-0.3,3.9c-0.3,3.9-3.3,6.8-5.4,7.4c-21.4,5.6-34,16.2-39.5,27.2
		c-12.3,23.3-1.2,58.7,25.4,51.9c20.8-5.4,27.8-34.7,30.9-58.3c0.1-9-11.7-10.1-11.8,2.5c-1.5,18.1-11,41.6-21.9,43.3
		c-14.9,2.7-20.1-19.4-12.2-33.2c7.6-13.7,27.3-20.2,40.7-23.2c19.3-3.5,41.4-7.2,55-25.1c5.6-7.4,9.3-17.1,11.1-26.9
		C587.3,180,587.9,178.6,587.7,177z M518.7,162.9c-1.8,17.8-8.7,35-16.8,40.9c-5.6,4.2-9.5,1.7-12.3-2.9c-4.9-8-5.5-24.2-3.7-39.7
		c1.8-14.2,5.7-28.2,11-34.2c4.6-5.5,9.2-7,12.8-5.8c3,0.7,5.3,3.1,6.8,6.3C520.3,135.4,520.1,149,518.7,162.9z"/>
</g>
</svg>
