<?xml version="1.0" encoding="utf-8"?>
<!-- Generator: Adobe Illustrator 19.0.0, SVG Export Plug-In . SVG Version: 6.00 Build 0)  -->
<svg version="1.1" id="Layer_1" xmlns="http://www.w3.org/2000/svg" xmlns:xlink="http://www.w3.org/1999/xlink" x="0px" y="0px"
	 viewBox="0 0 402.9 402.9" style="enable-background:new 0 0 402.9 402.9;" xml:space="preserve">
<style type="text/css">
	.st0{display:none;fill:#156085;}
	.st1{fill:#79C6AF;}
	.st2{fill:#FFFFFF;}
</style>
<circle id="XMLID_54_" class="st0" cx="201.4" cy="201.4" r="201.4"/>
<g id="XMLID_4_">
	<path id="XMLID_14_" class="st1" d="M256.1,142.5c0.1-0.9,0.6-1.6,1.5-1.7l38-7c0.8-0.2,1.3,0.3,1.3,1.2l-0.7,11.4
		c-0.1,0.9-0.6,1.6-1.5,1.7l-24,4.4c-0.5,0.1-0.8,0.4-0.9,1l-1.7,27.2c0,0.6,0.2,0.8,0.8,0.7l20.7-3.8c0.8-0.2,1.3,0.3,1.3,1.2
		l-0.7,11.4c-0.1,0.9-0.6,1.6-1.5,1.7l-20.7,3.8c-0.5,0.1-0.8,0.4-0.9,1l-2.5,40.6c-0.1,0.9-0.6,1.6-1.5,1.7l-11.9,2.2
		c-0.8,0.2-1.3-0.3-1.3-1.2L256.1,142.5z"/>
	<g id="XMLID_10_">
		<path id="XMLID_13_" class="st1" d="M312.6,174.6c18.5-9.6,37-19.2,55.5-28.8c5.6-2.9,0.8-11.5-4.8-8.6
			c-18.5,9.6-37,19.2-55.5,28.8C302.2,169,307,177.6,312.6,174.6L312.6,174.6z"/>
		<path id="XMLID_12_" class="st1" d="M310.3,209.6c10.9,2.4,21.8,5.2,32.7,7.9c6.2,1.5,12.4,3,18.6,4.4c2.8,0.6,7.5,2.5,10.4,1.6
			c6-1.9,3.7-11.4-2.3-9.5c0.6-0.2,1.8,0,1.3-0.1c-0.6-0.1-1.2-0.2-1.8-0.4c-2.1-0.4-4.2-0.9-6.3-1.4c-6.3-1.4-12.5-2.9-18.8-4.4
			c-10.4-2.5-20.7-5.2-31.1-7.5C306.8,198.8,304.1,208.2,310.3,209.6L310.3,209.6z"/>
		<path id="XMLID_11_" class="st1" d="M287.7,237.5c11,16,22,32.1,33,48.1c3.5,5.2,12.1,0.4,8.6-4.8c-11-16-22-32.1-33-48.1
			C292.7,227.6,284.2,232.3,287.7,237.5L287.7,237.5z"/>
	</g>
	<g id="XMLID_6_">
		<path id="XMLID_9_" class="st2" d="M99.9,249.2c-18.3,10-36.6,20-54.9,30c-5.5,3-0.6,11.5,5,8.5c18.3-10,36.6-20,54.9-30
			C110.4,254.6,105.4,246.2,99.9,249.2z"/>
		<path id="XMLID_8_" class="st2" d="M101.5,214.2c-11-2.2-21.9-4.8-32.8-7.2c-6.2-1.4-12.5-2.7-18.7-4c-2.8-0.6-7.6-2.4-10.4-1.4
			c-5.7,2-3.6,10.7,1.7,9.7c0.5,0.1,0.9,0.2,1.4,0.2c2.1,0.4,4.2,0.8,6.3,1.3c6.3,1.3,12.6,2.7,18.8,4.1c10.4,2.3,20.8,4.8,31.3,6.8
			C105.2,224.9,107.7,215.5,101.5,214.2z"/>
		<path id="XMLID_7_" class="st2" d="M123.4,185.8c-11.3-15.8-22.7-31.6-34-47.4c-3.6-5.1-12.1-0.2-8.5,5
			c11.3,15.8,22.7,31.6,34,47.4C118.6,195.8,127.1,190.9,123.4,185.8z"/>
	</g>
	<path id="XMLID_5_" class="st2" d="M225.2,151.6c3.8-2.4,7.8-5,11.8-8c12-9.7,22.4-22.6,24.3-39.8c2.7-26.3-13.9-37.6-31-34.5
		c-23.6,4.2-34,26-33.9,49.7c0.2,6.9,1.4,10.8,3.1,17.7c0.7,4.3,5.1,5.2,8.2,3.5c2.5-1.3,4.3-4.1,3.5-7.6c-1.3-5.9-2.4-9.3-2.4-15.6
		c0.3-16.9,6.7-32.8,23.2-35.2c10.3-1.3,19.6,5.8,18.2,21.5c-1.3,12.1-9.4,22.1-19,29.9c-12.7,9.8-30,17.6-45.8,17.4
		c-20.8-0.5-37.8-18.2-37.9-43.6c0.2-8-12.2-8-11.6,2.3c1.6,33.2,20.7,53.1,49.2,53.9c3.6-0.1,7.1-0.2,10.9-0.8
		c4.9-0.6,11.2,1.9,13.4,7.4c7.7,18.3,16.8,38,17,58.1c0.3,13.6-3.2,26.8-9.2,37.9c-22.4,40.4-80.3,35.3-82.8-16.4
		c-1.1-24.2,12.3-49.5,34.9-48.3c13,0.5,23,14.2,19.3,29.6c-1.5,6.8,9.1,11.2,11.3,2.2c5.4-26.2-8.7-44.8-31.3-45.5
		c-31.2-1.1-48.8,31-47.5,62.3c2.2,64.8,73.5,77.3,104.3,27.7c9.5-15.2,14.6-34.4,13.6-53c-1-18.2-9.4-39.8-17-57.5
		c-0.3-0.5-0.6-0.7-0.6-1.6C219.7,160.4,220.7,154.1,225.2,151.6z"/>
</g>
</svg>
