<svg width="239" height="299" viewBox="0 0 239 299" fill="none" xmlns="http://www.w3.org/2000/svg">
<g clip-path="url(#clip0)">
<path d="M131.463 79.3095L132.074 71.4596C132.088 71.0129 132.549 70.5806 132.996 70.595L138.943 70.7413C139.39 70.7557 139.851 70.3234 139.865 69.8767C140.127 60.3612 141.543 52.4925 144.654 47.5846C159.463 24.0047 172.189 16.4546 235.179 4.25927C235.721 4.09783 236.242 4.6064 236.315 5.10061C236.438 8.23447 236.462 17.2226 234.716 20.0281C232.55 23.4014 210.294 19.7801 204.792 21.1236C199.249 22.3317 152.53 33.6635 163.078 79.9227C173.626 126.182 258.687 269.403 186.638 294.765C131.288 314.271 100.037 230.011 92.5821 225.301C85.1271 220.59 67.2415 216.036 70.2574 211.304C73.2733 206.571 142.663 187.383 146.44 181.244C150.305 175.154 158.408 247.357 171.031 244.409C183.654 241.461 178.39 213.168 165.447 187.086C159.145 174.364 150.426 146.362 144.93 118.285C144.809 117.878 144.505 117.6 144.058 117.586L134.136 117.223C133.689 117.208 133.297 116.883 133.312 116.436L131.906 107.269C131.833 106.775 132.206 106.295 132.7 106.222L141.636 105.257C142.13 105.183 142.504 104.703 142.43 104.209C142.169 102.591 141.808 99.8968 141.635 98.3263C141.561 97.8321 141.169 97.5065 140.675 97.58L136.366 97.9782C135.919 97.9638 135.479 97.7261 135.358 97.3198L133.805 91.3678C133.731 90.8736 133.969 90.4341 134.423 90.2251L139.844 88.6108C140.251 88.4897 140.489 88.0502 140.456 87.6914C140.216 85.4034 140.064 83.1628 139.953 81.0578C139.88 80.5635 139.535 80.1501 139.04 80.2236L132.369 80.367C131.834 80.3051 131.401 79.8441 131.463 79.3095Z" fill="#EFB652"/>
<path d="M108.3 185.966C88.9277 194.242 66.7892 207.839 69.2843 213.732Z" fill="#F24E4D"/>
<path d="M69.2441 213.596C71.7392 219.489 87.6152 215.572 107.075 207.344C126.535 199.116 150.445 187.499 147.95 181.606C145.454 175.713 127.672 177.69 108.212 185.919" fill="#F24E4D"/>
<line x1="81.8685" y1="165.535" x2="62.8685" y2="134.535" stroke="#EFB652" stroke-width="5" stroke-linejoin="round"/>
<line x1="68.4573" y1="177.481" x2="3.27137" y2="157.621" stroke="#EFB652" stroke-width="5" stroke-linejoin="round"/>
<line x1="104.047" y1="159.138" x2="99.5044" y2="82.3768" stroke="#EFB652" stroke-width="5" stroke-linejoin="round"/>
</g>
<defs>
<clipPath id="clip0">
<rect width="239" height="299" fill="white"/>
</clipPath>
</defs>
</svg>
