<svg width="136" height="107" viewBox="0 0 136 107" fill="none" xmlns="http://www.w3.org/2000/svg">
<path d="M121.251 100.191C117.575 102.239 114.175 102.422 110.708 100.892C105.871 98.7768 103.215 94.7325 101.451 90.0056C99.7939 85.6505 99.3827 81.0804 99.4902 76.4365C99.5128 75.67 99.9413 75.6528 100.477 75.5059C106.95 73.7143 113.45 71.9677 119.923 70.1761C120.177 70.0801 120.459 70.0292 120.712 69.9332C121.338 69.7298 121.66 69.8423 122.009 70.5014C124.309 75.0813 126.13 79.8984 126.642 85.032C127.121 89.8107 126.63 94.4436 123.315 98.2728C122.582 99.1074 121.736 99.7618 121.251 100.191Z" fill="#69BDA0"/>
<path d="M109.164 23.1779C111.554 26.1967 113.014 29.7347 114.446 33.2277C117.112 39.8982 119.243 46.7156 120.375 53.8438C120.821 56.7627 121.102 59.7212 120.425 62.6523C120.222 63.5316 119.811 63.9772 118.976 64.2483C112.628 66.3385 106.279 68.4287 99.9136 70.5922C98.318 71.1513 97.072 70.8649 95.7472 69.7501C89.2357 64.3563 84.3706 57.6819 80.1709 50.4659C76.3658 43.8809 73.9646 36.7311 72.9335 29.1633C72.308 24.8525 72.5226 20.5805 74.1072 16.392C75.7257 12.0569 78.9622 9.40559 83.0555 7.72295C87.9721 5.6508 92.505 6.5771 96.7897 9.41409C101.379 12.4368 104.603 16.6892 107.783 20.9698C108.307 21.7076 108.713 22.4568 109.164 23.1779Z" fill="#69BDA0"/>
<path d="M66.1707 61.2916C72.7218 64.3409 78.6753 68.1403 82.1083 74.8327C83.9798 78.4268 84.5038 82.1741 83.0602 86.0864C81.3571 90.7878 76.2262 93.621 70.8025 92.8757C66.8052 92.304 63.3323 90.4639 60.1414 88.0713C56.8941 85.5885 54.1768 82.6488 51.7189 79.4215C51.5046 79.1794 51.3073 78.8639 51.0367 78.5317C56.1227 72.7173 61.1016 67.0326 66.1707 61.2916Z" fill="#F24E4D"/>
<path d="M16.1707 13.7606C17.9693 13.3253 19.7904 12.625 21.6397 12.4714C25.3101 12.1191 28.7605 13.221 32.0192 14.8189C37.3751 17.362 41.6879 21.2472 45.8145 25.4369C50.9729 30.6739 54.6879 36.8139 57.9348 43.3092C59.8289 47.14 61.3508 51.0781 62.3935 55.2533C62.788 56.8873 62.5455 58.1048 61.2994 59.3231C56.5235 64.1284 51.8041 69.0238 47.0846 73.9193C46.673 74.3648 46.2558 74.5004 45.6695 74.3656C43.4086 73.9616 41.3734 72.915 39.4453 71.7387C33.6891 68.2548 28.728 63.8347 24.1334 58.9973C21.1568 55.8437 18.1238 52.5999 15.7505 49.0063C12.3738 43.9087 9.55522 38.3992 8.09548 32.3533C7.27825 29.0402 7.12631 25.6871 8.226 22.4289C9.02117 19.988 10.538 18.0989 12.3592 16.3955C12.6016 16.1811 12.7708 15.9499 13.0133 15.7356L16.1707 13.7606V13.7606Z" fill="#F24E4D"/>
</svg>
