<?xml version="1.0" encoding="utf-8"?>
<!-- Generator: Adobe Illustrator 19.0.0, SVG Export Plug-In . SVG Version: 6.00 Build 0)  -->
<svg version="1.1" id="Layer_1" xmlns="http://www.w3.org/2000/svg" xmlns:xlink="http://www.w3.org/1999/xlink" x="0px" y="0px"
	 viewBox="0 0 213.4 277.6" style="enable-background:new 0 0 213.4 277.6;" xml:space="preserve">
<style type="text/css">
	.st0{fill:#79C6AF;}
	.st1{fill:#FFFFFF;}
</style>
<g id="XMLID_2_">
	<g id="XMLID_11_">
		<g id="XMLID_17_">
			<path id="XMLID_20_" class="st0" d="M145.4,44.4c1.1-13.7,2.3-27.4,3.4-41.1c0.3-4.1-6.1-4.5-6.5-0.3
				c-1.1,13.7-2.3,27.4-3.4,41.1C138.6,48.2,145,48.5,145.4,44.4L145.4,44.4z"/>
			<path id="XMLID_19_" class="st0" d="M164,58c5.2-5.3,10.6-10.3,15.9-15.5c3-2.9,6-5.9,9-8.8c1.3-1.3,4.1-3.3,4.6-5.2
				c1-4-5.1-6.1-6.1-2c0.1-0.4,0.7-1,0.4-0.8c-0.3,0.3-0.6,0.6-0.8,0.9c-1,1-2,2-3,3c-3,3-6,5.9-9.1,8.9c-5,4.9-10.2,9.7-15.1,14.7
				C156.8,56.1,161.1,61,164,58L164,58z"/>
			<path id="XMLID_18_" class="st0" d="M171.7,80.4c12.8-0.5,25.6-1,38.5-1.5c4.1-0.2,4.5-6.6,0.3-6.5c-12.8,0.5-25.6,1-38.5,1.5
				C167.9,74.1,167.5,80.5,171.7,80.4L171.7,80.4z"/>
		</g>
		<g id="XMLID_13_">
			<path id="XMLID_16_" class="st1" d="M68.1,233.2c-1.1,13.7-2.3,27.4-3.4,41.1c-0.3,4.1,6.1,4.5,6.5,0.3
				c1.1-13.7,2.3-27.4,3.4-41.1C74.9,229.4,68.4,229.1,68.1,233.2z"/>
			<path id="XMLID_15_" class="st1" d="M49.4,219.6c-5.2,5.3-10.6,10.3-15.9,15.5c-3,2.9-6,5.9-9,8.8c-1.3,1.3-4.1,3.3-4.6,5.2
				c-1,3.8,4.5,5.9,6,2.6c0.2-0.2,0.4-0.4,0.6-0.7c1-1,2-2,3-3c3-3,6-5.9,9.1-8.9c5-4.9,10.2-9.7,15.1-14.7
				C56.7,221.5,52.3,216.6,49.4,219.6z"/>
			<path id="XMLID_14_" class="st1" d="M41.7,197.2c-12.8,0.5-25.6,1-38.5,1.5c-4.1,0.2-4.5,6.6-0.3,6.5c12.8-0.5,25.6-1,38.5-1.5
				C45.5,203.5,45.9,197.1,41.7,197.2z"/>
		</g>
		<path id="XMLID_12_" class="st1" d="M122.9,115.7c2.5-1.6,5.1-3.3,7.8-5.2c7.9-6.4,14.8-14.9,16-26.2c1.8-17.3-9.2-24.8-20.5-22.8
			c-15.6,2.8-22.4,17.2-22.4,32.8c0.2,4.5,0.9,7.1,2,11.7c0.5,2.8,3.3,3.4,5.4,2.3c1.6-0.8,2.8-2.7,2.3-5c-0.9-3.9-1.6-6.1-1.6-10.3
			c0.2-11.1,4.4-21.6,15.3-23.2c6.8-0.8,12.9,3.9,12,14.2c-0.8,8-6.2,14.6-12.5,19.7c-8.4,6.4-19.8,11.6-30.2,11.4
			c-13.7-0.3-24.9-12-25-28.7c0.1-5.3-8-5.3-7.7,1.5c1,21.9,13.6,35,32.4,35.5c2.4-0.1,4.7-0.1,7.2-0.6c3.3-0.4,7.4,1.3,8.9,4.9
			c5.1,12,11,25.1,11.2,38.3c0.2,9-2.1,17.7-6.1,25c-14.8,26.6-52.9,23.3-54.6-10.8c-0.7-16,8.1-32.7,23-31.8
			c8.6,0.3,15.2,9.4,12.8,19.5c-1,4.5,6,7.4,7.5,1.5c3.6-17.3-5.8-29.5-20.6-30c-20.6-0.7-32.2,20.5-31.3,41.1
			c1.5,42.7,48.5,51,68.7,18.3c6.3-10,9.7-22.7,9-35c-0.7-12-6.2-26.3-11.2-37.9c-0.2-0.3-0.4-0.5-0.4-1
			C119.3,121.5,119.9,117.3,122.9,115.7z"/>
	</g>
	<g id="XMLID_7_">
		<path id="XMLID_10_" class="st0" d="M145.4,44.4c1.1-13.7,2.3-27.4,3.4-41.1c0.3-4.1-6.1-4.5-6.5-0.3c-1.1,13.7-2.3,27.4-3.4,41.1
			C138.6,48.2,145,48.5,145.4,44.4L145.4,44.4z"/>
		<path id="XMLID_9_" class="st0" d="M164,58c5.2-5.3,10.6-10.3,15.9-15.5c3-2.9,6-5.9,9-8.8c1.3-1.3,4.1-3.3,4.6-5.2
			c1-4-5.1-6.1-6.1-2c0.1-0.4,0.7-1,0.4-0.8c-0.3,0.3-0.6,0.6-0.8,0.9c-1,1-2,2-3,3c-3,3-6,5.9-9.1,8.9c-5,4.9-10.2,9.7-15.1,14.7
			C156.8,56.1,161.1,61,164,58L164,58z"/>
		<path id="XMLID_8_" class="st0" d="M171.7,80.4c12.8-0.5,25.6-1,38.5-1.5c4.1-0.2,4.5-6.6,0.3-6.5c-12.8,0.5-25.6,1-38.5,1.5
			C167.9,74.1,167.5,80.5,171.7,80.4L171.7,80.4z"/>
	</g>
	<g id="XMLID_3_">
		<path id="XMLID_6_" class="st1" d="M68.1,233.2c-1.1,13.7-2.3,27.4-3.4,41.1c-0.3,4.1,6.1,4.5,6.5,0.3c1.1-13.7,2.3-27.4,3.4-41.1
			C74.9,229.4,68.4,229.1,68.1,233.2z"/>
		<path id="XMLID_5_" class="st1" d="M49.4,219.6c-5.2,5.3-10.6,10.3-15.9,15.5c-3,2.9-6,5.9-9,8.8c-1.3,1.3-4.1,3.3-4.6,5.2
			c-1,3.8,4.5,5.9,6,2.6c0.2-0.2,0.4-0.4,0.6-0.7c1-1,2-2,3-3c3-3,6-5.9,9.1-8.9c5-4.9,10.2-9.7,15.1-14.7
			C56.7,221.5,52.3,216.6,49.4,219.6z"/>
		<path id="XMLID_4_" class="st1" d="M41.7,197.2c-12.8,0.5-25.6,1-38.5,1.5c-4.1,0.2-4.5,6.6-0.3,6.5c12.8-0.5,25.6-1,38.5-1.5
			C45.5,203.5,45.9,197.1,41.7,197.2z"/>
	</g>
</g>
</svg>
