<svg width="164" height="54" viewBox="0 0 164 54" fill="none" xmlns="http://www.w3.org/2000/svg">
<g clip-path="url(#clip0)">
<path d="M150.177 21.2536C150.665 32.6312 154.037 41.7268 157.709 41.5692C161.38 41.4116 163.96 32.0605 163.471 20.6829C162.983 9.30529 159.611 0.209664 155.94 0.367257C152.269 0.52485 149.689 9.87598 150.177 21.2536Z" fill="#F24E4D"/>
<path d="M1.17114 36.3165L10.0303 33.067C10.0994 33.0475 10.1438 33.0723 10.1686 33.028C15.8106 33.4491 21.4578 33.7567 27.0908 33.8818C27.3177 33.8923 27.4897 34.1049 27.4349 34.307C26.7946 37.3241 27.0123 40.4719 28.7949 43.2149C31.5548 47.4357 36.5701 49.6012 41.2925 50.7299C46.5964 52.0675 52.1197 52.5968 57.5791 53.0321C64.3307 53.5502 71.0734 53.7722 77.8461 53.8365C85.2994 53.9324 92.7633 53.8015 100.208 53.6013C103.691 53.5129 107.154 53.3554 110.617 53.1978C114.377 53.0313 118.205 52.8452 121.726 51.4398C126.848 49.3584 132.545 42.7108 128.714 37.076C126.946 34.5156 123.985 33.1503 121.142 32.1998C112.661 29.2595 103.008 29.0388 94.1097 28.7166C75.3618 28.0055 56.6446 28.5918 37.8704 28.4478C37.5301 28.432 37.3686 27.9925 37.6503 27.8009C41.3092 24.9013 46.5749 24.1225 51.0998 23.6278C78.8857 20.6658 108.149 20.1598 134.898 29.2459C142.837 32.1156 148.909 35.5124 152.383 38.5613C154.872 40.7687 156.597 41.3263 157.317 41.4961C157.519 41.551 157.732 41.3789 157.742 41.152C157.976 37.093 159.765 2.47907 155.953 0.346721C151.875 -1.9344 146.527 11.8916 131.349 15.0978C121.911 17.0926 103.981 16.8968 99.3686 16.8191C85.4559 15.7867 71.3808 16.2929 57.5702 17.4708C50.4699 18.0961 42.547 18.3195 36.212 22.0499C33.6869 23.547 31.6088 25.7015 30.0377 28.1979C29.9633 28.3308 29.8251 28.3699 29.7116 28.3646C25.3956 28.2779 21.1044 28.1469 16.8184 27.9025C14.959 27.7934 13.0996 27.6844 11.265 27.531C11.2207 27.5062 11.1516 27.5257 11.1072 27.5009L0.513978 21.575C0.248039 21.4262 -0.0337004 21.6178 -0.0247044 21.9138L0.664049 35.9746C0.673045 36.2706 0.938989 36.4194 1.17114 36.3165ZM110.299 35.5618C113.642 36.0353 117.094 36.6275 120.267 37.8207C120.355 37.8703 120.779 38.0492 120.893 38.0544C121.183 38.1589 121.449 38.3076 121.715 38.4564C122.247 38.7539 122.779 39.0515 123.286 39.3933C123.197 39.3437 123.025 39.1311 123.439 39.5368C123.635 39.7051 123.763 39.893 123.96 40.0613C124.049 40.1108 124.049 40.1108 124.093 40.1356C124.112 40.2048 124.112 40.2048 124.132 40.2739C124.274 40.6443 124.357 40.8073 124.336 41.2611C124.181 43.6185 121.497 45.6085 119.551 46.3822C116.425 47.6013 112.947 47.5762 109.666 47.7195C104.906 47.9078 100.145 48.096 95.4337 48.1957C95.2511 48.2099 95.0986 48.0664 95.0843 47.8838L94.3416 43.8022C94.3273 43.6196 94.1305 43.4513 93.9232 43.5099L89.556 44.0347C89.4178 44.0738 89.3238 44.1376 89.2495 44.2706L87.7534 48.0892C87.679 48.2222 87.5603 48.3304 87.4026 48.3003C85.8782 48.3205 84.3096 48.3159 82.7853 48.3361C82.6027 48.3503 82.4945 48.2316 82.4112 48.0686L81.6105 45.2348C81.5714 45.0965 81.4633 44.9778 81.3055 44.9477L77.9924 44.3165C77.8347 44.2864 77.6716 44.3698 77.5725 44.5471L76.0426 48.114C75.9683 48.247 75.8496 48.3552 75.6918 48.3251C74.6017 48.2972 73.4868 48.3137 72.3967 48.2858C72.2142 48.3001 72.106 48.1814 72.0226 48.0183L71.2219 45.1845C71.1829 45.0463 71.0747 44.9275 70.9613 44.9223L66.9781 44.0325C66.8203 44.0025 66.6573 44.0858 66.5829 44.2188L64.5993 47.7647C64.5249 47.8976 64.3867 47.9367 64.2485 47.9758C60.0759 47.7366 55.953 47.4088 51.8158 46.8984C47.6342 46.3632 43.2949 45.798 39.3186 44.2719C38.8506 44.0682 37.0919 43.259 36.1664 42.6249C35.349 42.1095 34.5174 41.4115 33.9179 40.6106C32.9106 39.2905 32.6868 38.2342 32.7357 36.6904C32.7763 36.3057 32.6966 36.5521 32.8364 35.9902C32.9213 35.6304 33.0062 35.2705 33.116 34.8663C33.2204 34.5756 33.2753 34.3735 33.3053 34.2157C33.3354 34.058 33.4984 33.9746 33.681 33.9603C49.2683 34.1837 64.9068 33.7956 80.4993 33.9055C90.335 34.112 100.428 34.1713 110.299 35.5618Z" fill="#EFB652"/>
</g>
<defs>
<clipPath id="clip0">
<rect width="164" height="54" fill="white"/>
</clipPath>
</defs>
</svg>
